<svg width="120" height="120" viewBox="0 0 120 120" fill="none" xmlns="http://www.w3.org/2000/svg">
  <!-- Stylized book/document - enlarged and centered -->
  <g transform="translate(25, 25) scale(1.4)">
    <!-- Book cover -->
    <rect x="0" y="0" width="50" height="40" rx="4" fill="white" opacity="0.95"/>
    <rect x="0" y="0" width="50" height="40" rx="4" fill="none" stroke="#E5E7EB" stroke-width="1"/>
    
    <!-- Book spine -->
    <rect x="0" y="0" width="6" height="40" rx="4" fill="url(#spineGradient)"/>
    
    <!-- Text lines with website color scheme -->
    <rect x="12" y="8" width="30" height="2" rx="1" fill="#3B82F6"/>
    <rect x="12" y="14" width="25" height="2" rx="1" fill="#2563EB"/>
    <rect x="12" y="20" width="28" height="2" rx="1" fill="#1D4ED8"/>
    <rect x="12" y="26" width="22" height="2" rx="1" fill="#3B82F6"/>
    
    <!-- Modern Git symbol -->
    <g transform="translate(15, 45)">
      <circle cx="0" cy="0" r="3" fill="#3B82F6"/>
      <circle cx="12" cy="-6" r="3" fill="#1D4ED8"/>
      <circle cx="12" cy="6" r="3" fill="#2563EB"/>
      
      <!-- Curved connection lines -->
      <path d="M 3 0 Q 6 -3 9 -6" stroke="#6B7280" stroke-width="2" fill="none" stroke-linecap="round"/>
      <path d="M 3 0 Q 6 3 9 6" stroke="#6B7280" stroke-width="2" fill="none" stroke-linecap="round"/>
    </g>
  </g>
  
  <!-- AI sparkles -->
  <g opacity="0.8">
    <circle cx="25" cy="30" r="2" fill="#3B82F6">
      <animate attributeName="opacity" values="0.3;1;0.3" dur="2s" repeatCount="indefinite"/>
    </circle>
    <circle cx="95" cy="35" r="1.5" fill="#2563EB">
      <animate attributeName="opacity" values="0.5;1;0.5" dur="1.5s" repeatCount="indefinite" begin="0.5s"/>
    </circle>
    <circle cx="85" cy="85" r="2" fill="#1D4ED8">
      <animate attributeName="opacity" values="0.4;1;0.4" dur="1.8s" repeatCount="indefinite" begin="1s"/>
    </circle>
  </g>
  
  <!-- Gradient Definitions -->
  <defs>
    <linearGradient id="spineGradient" x1="0%" y1="0%" x2="100%" y2="100%">
      <stop offset="0%" style="stop-color:#3B82F6;stop-opacity:1" />
      <stop offset="100%" style="stop-color:#1D4ED8;stop-opacity:1" />
    </linearGradient>
  </defs>
</svg>